<?xml version="1.0" standalone="no"?>
<!DOCTYPE svg PUBLIC "-//W3C//DTD SVG 20010904//EN"
 "http://www.w3.org/TR/2001/REC-SVG-20010904/DTD/svg10.dtd">
<svg version="1.0" xmlns="http://www.w3.org/2000/svg"
 width="800.000000pt" height="800.000000pt" viewBox="0 0 800.000000 800.000000"
 preserveAspectRatio="xMidYMid meet">
<metadata>
Created by potrace 1.11, written by Peter Selinger 2001-2013
</metadata>
<g transform="translate(0.000000,800.000000) scale(0.100000,-0.100000)"
fill="#000000" stroke="none">
<path d="M0 4000 l0 -4000 4000 0 4000 0 0 4000 0 4000 -4000 0 -4000 0 0
-4000z m4030 1998 c18 -62 37 -121 42 -130 7 -15 27 -18 138 -20 l130 -3 -105
-80 c-57 -44 -105 -83 -105 -87 0 -3 18 -64 40 -134 22 -70 38 -129 37 -131
-2 -2 -52 34 -110 79 l-107 81 -107 -81 c-58 -45 -108 -81 -109 -79 -2 2 14
59 36 128 22 68 40 129 40 134 0 6 -47 46 -105 90 l-106 80 130 3 c112 2 132
5 139 20 5 9 24 68 42 130 19 61 37 112 40 112 4 0 22 -51 40 -112z m-891
-255 l38 -118 139 -5 139 -5 -111 -84 -112 -84 43 -128 c24 -71 41 -129 37
-129 -4 0 -50 32 -102 71 -52 39 -100 73 -107 76 -6 2 -58 -29 -114 -71 -57
-42 -105 -74 -107 -71 -3 3 47 166 75 241 2 6 -47 49 -108 95 l-113 84 139 5
139 5 40 122 c22 67 42 120 44 118 2 -2 21 -57 41 -122z m1782 -1 l37 -117
138 -5 138 -5 -107 -80 c-59 -43 -107 -85 -107 -91 0 -6 17 -66 39 -133 21
-66 37 -121 35 -121 -2 0 -52 35 -111 79 l-107 78 -105 -78 c-58 -42 -107 -74
-109 -70 -1 3 16 60 38 125 22 65 37 122 35 126 -3 5 -52 43 -111 87 l-105 78
137 5 138 5 40 122 c22 67 42 120 45 117 2 -2 21 -57 42 -122z m-2243 -782
l133 -5 -106 -79 c-58 -43 -104 -84 -102 -90 31 -86 78 -239 74 -243 -3 -3
-41 22 -84 54 -43 33 -90 68 -105 77 l-28 18 -110 -81 c-60 -44 -110 -80 -110
-78 0 2 18 57 40 122 22 65 40 125 40 132 0 7 -48 49 -106 92 l-106 80 133 3
134 3 44 130 45 129 41 -129 41 -130 132 -5z m2896 128 l36 -117 138 -3 137
-3 -107 -80 c-59 -44 -107 -84 -107 -90 -1 -5 17 -64 38 -130 21 -66 37 -121
36 -123 -2 -2 -49 31 -106 72 -57 42 -108 76 -114 76 -5 0 -55 -34 -109 -75
-55 -41 -101 -73 -104 -71 -2 3 15 62 38 131 23 69 40 127 39 129 -2 1 -53 38
-112 82 l-108 79 138 3 138 3 39 125 c22 68 43 121 46 117 4 -4 24 -61 44
-125z m420 -998 l139 0 -109 -82 c-60 -44 -111 -82 -113 -84 -1 -1 16 -60 39
-129 23 -69 40 -128 38 -130 -2 -2 -39 24 -83 57 -44 33 -92 68 -106 79 l-26
18 -109 -79 c-59 -44 -109 -78 -111 -76 -1 1 15 56 37 121 22 66 40 125 40
131 0 7 -48 48 -107 91 l-108 78 137 3 136 3 42 132 42 132 42 -132 41 -133
139 0z m-3720 118 l37 -117 136 -3 137 -3 -107 -80 c-59 -43 -107 -84 -107
-90 0 -6 18 -64 40 -130 22 -65 38 -120 36 -122 -2 -2 -52 32 -111 76 l-107
79 -106 -78 c-58 -44 -108 -77 -110 -75 -2 2 15 61 38 131 24 71 38 129 33
133 -5 3 -55 40 -112 81 l-102 75 139 3 139 3 38 125 c21 68 42 121 46 117 4
-4 23 -61 43 -125z m406 -1028 l134 -5 -107 -80 c-59 -44 -106 -84 -104 -90
31 -85 78 -237 74 -241 -3 -3 -47 25 -99 63 -51 38 -99 72 -105 77 -8 4 -54
-23 -120 -73 -60 -43 -109 -78 -110 -77 -2 1 15 56 37 121 22 66 40 125 40
132 0 7 -48 49 -106 92 l-106 80 133 3 134 3 44 130 45 129 41 -129 41 -130
134 -5z m2894 128 l36 -117 138 -3 137 -3 -108 -80 c-123 -92 -117 -69 -63
-237 19 -60 32 -108 28 -108 -3 0 -47 32 -99 70 -52 39 -100 73 -107 76 -8 3
-60 -29 -116 -71 -57 -42 -104 -74 -106 -72 -2 2 14 57 36 122 22 66 40 123
40 127 0 5 -50 45 -111 91 l-112 82 140 3 140 3 38 124 c21 69 42 122 46 118
3 -5 23 -61 43 -125z m-2425 -638 l42 -130 136 0 136 0 -106 -80 c-59 -44
-107 -87 -107 -94 0 -7 17 -68 39 -135 21 -66 33 -118 27 -114 -6 4 -54 38
-106 77 -52 38 -99 69 -105 69 -6 0 -53 -31 -105 -70 -52 -38 -100 -73 -107
-76 -6 -4 8 52 33 125 24 72 43 132 41 133 -1 1 -51 38 -111 83 l-108 81 137
3 138 3 40 128 c22 70 41 127 43 127 1 0 20 -58 43 -130z m1771 0 l41 -130
136 0 136 0 -106 -80 c-59 -44 -107 -86 -107 -93 0 -7 18 -66 40 -132 22 -65
39 -120 37 -121 -1 -1 -49 33 -107 76 -58 44 -108 79 -112 79 -4 1 -51 -32
-105 -72 -54 -40 -103 -76 -110 -80 -6 -4 8 52 33 125 24 73 44 133 44 134 0
1 -48 37 -107 80 l-108 79 134 5 135 5 39 128 c22 70 42 127 43 127 2 0 22
-58 44 -130z m-905 -137 c3 -16 20 -72 37 -125 l31 -98 140 0 140 0 -109 -82
c-60 -44 -111 -82 -113 -84 -2 -2 15 -61 37 -131 23 -70 40 -129 38 -130 -1
-1 -51 33 -110 77 l-107 79 -106 -79 c-59 -44 -108 -78 -110 -77 -1 2 16 60
39 130 23 69 40 128 38 130 -3 2 -54 41 -114 85 l-109 82 140 0 140 0 39 125
c21 69 42 125 45 125 4 0 10 -12 14 -27z"/>
</g>
</svg>
